<?xml version="1.0" encoding="UTF-8"?>
<svg id="Calque_1" data-name="Calque 1" xmlns="http://www.w3.org/2000/svg" viewBox="0 0 43.87 29.41">
  <defs>
    <style>
      .cls-1 {
        fill: #818cf8;
        fill-rule: evenodd;
        stroke-width: 0px;
      }
    </style>
  </defs>
  <path class="cls-1" d="M42.34,11.45l-7.6-4.39v20.37h8.88v1.97H.21v-1.97h3.95v-12.55l-3.68.92-.48-1.91,20.81-5.2h3.08c-.34.81-.57,1.66-.67,2.52l-.48,3.92,5.1-2.94v15.24h4.93V7.07l-7.59,4.38c.22-1.8,1.1-3.51,2.53-4.74h-4.06c1.35-1.8,3.5-2.96,5.92-2.96.21,0,.43,0,.64.03l-5.52-3.19c2.07-.88,4.51-.81,6.61.4,1.03.59,1.86,1.39,2.47,2.32.61-.92,1.44-1.72,2.47-2.32,2.1-1.21,4.54-1.28,6.61-.4l-5.52,3.19c.21-.02.42-.03.64-.03,2.42,0,4.57,1.16,5.92,2.96h-4.07c1.44,1.23,2.31,2.93,2.53,4.74ZM23.89,27.44v-9.87h-5.92v9.87h5.92ZM13.04,19.54c0,1.09-.88,1.97-1.97,1.97s-1.97-.88-1.97-1.97.88-1.97,1.97-1.97,1.97.88,1.97,1.97Z"/>
</svg>